<svg xmlns="http://www.w3.org/2000/svg" viewBox="0 0 64 64">
  <rect width="64" height="64" rx="16" fill="#0F1714" />
  <path
    d="M32 7.5 51 15v13.7c0 12.1-7.2 21.9-19 27.8-11.8-5.9-19-15.7-19-27.8V15l19-7.5Z"
    fill="#BEECCB"
  />
  <path
    d="M32 14.3 44.8 19v9.1c0 8.2-4.5 14.8-12.8 19.5-8.3-4.7-12.8-11.3-12.8-19.5V19L32 14.3Z"
    fill="#12271D"
  />
  <path
    d="M25 24.5h15.5c2.2 0 4 1.8 4 4s-1.8 4-4 4H31.6c-2.2 0-4 1.8-4 4s1.8 4 4 4H43"
    fill="none"
    stroke="#F7F1E7"
    stroke-linecap="round"
    stroke-width="5.5"
  />
  <path d="M22.5 24.5h6.7v16h-6.7z" fill="#F2BC7D" />
  <path
    d="M22.5 32.2h20.7"
    fill="none"
    stroke="#BEECCB"
    stroke-linecap="round"
    stroke-width="3.4"
  />
</svg>
